<svg xmlns="http://www.w3.org/2000/svg" width="29.232" height="28.943" viewBox="0 0 29.232 28.943">
  <path id="Path_63" data-name="Path 63" d="M1995.4-3068.792a20.355,20.355,0,0,1-.026,2.956,2.16,2.16,0,0,0,1.544,2.782c2.657.926,3.648,2.842,2.982,5.785-1.976-.511-4.018-.988-6.028-1.577a5.662,5.662,0,0,0-3.36,0c-1.977.592-3.991,1.061-6,1.584-.551-3.317-.2-4.276,2.644-5.586,1.573-.725,2.168-1.633,1.831-3.315a14.361,14.361,0,0,1-.027-2.615l-11.22,3.191c-.457-3.384-.078-4.176,2.681-5.768,2.4-1.384,4.788-2.785,7.208-4.131a1.527,1.527,0,0,0,.933-1.634c-.095-1.382-.092-2.774-.059-4.161a5.99,5.99,0,0,1,1.778-4.028,2.554,2.554,0,0,1,3.957.088,6.947,6.947,0,0,1,1.692,4.957c-.025,1.425-.4,3.105.21,4.205.582,1.043,2.248,1.484,3.443,2.18,1.446.842,2.842,1.794,4.357,2.485,2.541,1.159,3.237,3.085,2.7,5.811Zm-9.711,9.638c.213.048.338.12.423.088a15.18,15.18,0,0,1,11.729-.089c.892.38,1.073-.2.765-.852a3.165,3.165,0,0,0-1.123-1.221c-.871-.56-1.843-.96-2.722-1.508-.334-.209-.749-.647-.747-.978.01-2.224.123-4.447.207-6.8l11.212,3.2a2.226,2.226,0,0,0-1.263-2.394c-1.857-1.055-3.713-2.113-5.553-3.2-1.386-.817-3.267-1.377-3.97-2.6-.663-1.156-.057-3.03-.048-4.588a6.73,6.73,0,0,0-.173-1.89,6.979,6.979,0,0,0-.931-2.017c-.768-1.1-1.685-1.1-2.531-.076a5.6,5.6,0,0,0-1.2,3.886c.034,1.214.033,2.435.17,3.639a1.706,1.706,0,0,1-1.08,1.9c-2.878,1.592-5.711,3.267-8.565,4.9a2.05,2.05,0,0,0-1.278,2.419l11.274-3.214a20.712,20.712,0,0,0,.038,3.792c.545,2.746-.344,4.484-3.06,5.327A1.988,1.988,0,0,0,1985.688-3059.154Z" transform="translate(-1977.579 3086.207)"/>
</svg>
