<svg xmlns="http://www.w3.org/2000/svg" width="13.974" height="16.631" viewBox="0 0 13.974 16.631">
  <g id="Group_77" data-name="Group 77" transform="translate(-24.026 -432.155)">
    <path id="Path_65" data-name="Path 65" d="M2231.564-104.781c.689-.339,1.239-1.514,2.091-.622.762.8-.294,1.336-.708,2a7.248,7.248,0,0,1,1.245,5.735,6.871,6.871,0,0,1-2.605,4.061,6.9,6.9,0,0,1-8.819-.307c-2.768-2.47-3.137-5.843-1.033-9.459-.25-.688-1.553-1.164-.647-2.06.781-.772,1.365.141,1.984.678A7.177,7.177,0,0,1,2231.564-104.781Zm1.031,5.754a5.286,5.286,0,0,0-4.889-5.352,5.294,5.294,0,0,0-5.577,5.119,5.28,5.28,0,0,0,5.048,5.343A5.25,5.25,0,0,0,2232.6-99.027Z" transform="translate(-2196.36 540.948)"/>
    <path id="Path_69" data-name="Path 69" d="M2228.119-107.522a5.469,5.469,0,0,1-1.588-.039c-.369-.117-.628-.578-.936-.885.292-.273.566-.758.878-.783a21.323,21.323,0,0,1,3.487,0c.3.025.569.523.853.8-.315.3-.587.761-.957.862A6.8,6.8,0,0,1,2228.119-107.522Z" transform="translate(-2197.201 541.455)"/>
    <path id="Path_70" data-name="Path 70" d="M2229.7-98.16c-.1.126-.309.646-.671.8a1.53,1.53,0,0,1-1.3-.166,1.68,1.68,0,0,1-.46-1.226,8,8,0,0,1,.366-2.215c.12-.374.549-.649.839-.969.29.319.741.595.839.964A23.867,23.867,0,0,1,2229.7-98.16Z" transform="translate(-2197.471 540.266)"/>
  </g>
</svg>
