<svg xmlns="http://www.w3.org/2000/svg" xmlns:xlink="http://www.w3.org/1999/xlink" width="23.542" height="26.863" viewBox="0 0 23.542 26.863">
  <defs>
    <linearGradient id="linear-gradient" x1="69.04" y1="385.531" x2="69.947" y2="385.107" gradientUnits="objectBoundingBox">
      <stop offset="0" stop-color="#626262"/>
      <stop offset="0.45" stop-color="#3e3e3e"/>
    </linearGradient>
  </defs>
  <g id="Group_127" data-name="Group 127" transform="translate(-263.05 -522.986)">
    <path id="Path_110" data-name="Path 110" d="M1729.33,440.062h-23.542l1.447-7.464,5.255-1.062h10.14l5.253,1.061Z" transform="translate(-1442.738 109.787)" fill="#5c5c5c"/>
    <path id="Path_111" data-name="Path 111" d="M1730.135,440.062h-11.771v-8.527h5.07l5.253,1.061Z" transform="translate(-1443.543 109.787)" fill="#454545"/>
    <path id="Path_113" data-name="Path 113" d="M1723.088,431.506l-5.07,8.526-5.07-8.526,2-.4h6.14Z" transform="translate(-1443.196 109.815)" fill="#454545"/>
    <path id="Path_114" data-name="Path 114" d="M1723.434,431.506l-5.07,8.526V431.1h3.07Z" transform="translate(-1443.543 109.815)" fill="#313131"/>
    <path id="Path_115" data-name="Path 115" d="M1721.224,430.9a3.507,3.507,0,0,1-6.14,0l.281-2.99h5.579Z" transform="translate(-1443.333 110.019)" fill="#cbcbcb"/>
    <path id="Path_116" data-name="Path 116" d="M1721.434,430.9a3.468,3.468,0,0,1-3.07,1.812v-4.8h2.789Z" transform="translate(-1443.543 110.019)" fill="#b0b0b0"/>
    <path id="Path_117" data-name="Path 117" d="M1722.03,419.959h1.143a2.076,2.076,0,1,1,0,4.151h-1.143Z" transform="translate(-1443.778 110.528)" fill="#b0b0b0"/>
    <path id="Path_118" data-name="Path 118" d="M1714.478,419.959h-1.143a2.076,2.076,0,0,0,0,4.151h1.143Z" transform="translate(-1443.088 110.528)" fill="#cbcbcb"/>
    <path id="Path_119" data-name="Path 119" d="M1722.245,420.639v3.515a4.306,4.306,0,0,1-4.167,4.436,4.031,4.031,0,0,1-2.947-1.3,4.566,4.566,0,0,1-1.217-3.136v-3.515Z" transform="translate(-1443.258 110.485)" fill="#e0e0e0"/>
    <path id="Path_120" data-name="Path 120" d="M1722.531,420.639v3.515a4.306,4.306,0,0,1-4.167,4.436v-7.95Z" transform="translate(-1443.543 110.485)" fill="#cbcbcb"/>
    <path id="Path_121" data-name="Path 121" d="M1723.8,413.957l-.546,2.092-.9.893-4.358.818-.026,0-4.384-.813-.9-.893-.493-2.092,5.775-2.012Z" transform="translate(-1443.148 111.041)" fill="#dedede"/>
    <path id="Path_122" data-name="Path 122" d="M1724.191,413.957l-.546,2.092-.9.893-4.358.818-.026-.006v-5.81Z" transform="translate(-1443.543 111.041)" fill="#bebebe"/>
    <path id="Path_123" data-name="Path 123" d="M1723.283,418.548c-.3,1.458-1.13,2.177-2.109,2.177h-6.346c-.979,0-1.81-.718-2.109-2.177l.9-1.265h8.767Z" transform="translate(-1443.182 110.699)" fill="#5c5c5c"/>
    <path id="Path_124" data-name="Path 124" d="M1723.646,418.548c-.3,1.458-1.13,2.177-2.109,2.177h-3.173v-3.442h4.384Z" transform="translate(-1443.543 110.699)" fill="#313131"/>
    <g id="Group_105" data-name="Group 105" transform="translate(279.688 544.194)">
      <g id="Group_104" data-name="Group 104">
        <path id="Path_126" data-name="Path 126" d="M1726.13,437.07a1.231,1.231,0,0,1-.52.768,1.273,1.273,0,0,1-.791.238,1.311,1.311,0,0,1-1.247-1.181,1.29,1.29,0,0,1,.637-1.267c.015-.009.029-.022.043-.033l.094-.022.253.229-.1.044a.962.962,0,0,0-.573.636.947.947,0,0,0,.211.936.922.922,0,0,0,.961.3.967.967,0,0,0,.749-.834c.052.036.1.076.157.11S1726.085,437.045,1726.13,437.07Z" transform="translate(-1723.564 -434.666)" fill="#c7c7c7"/>
        <path id="Path_127" data-name="Path 127" d="M1724.648,435.778l-.253-.229.045-.036a1.542,1.542,0,0,1,.993.006l.01-.028-.08-.1-.132-.147h.3a1.932,1.932,0,0,1-.031.208c-.023.087.025.125.088.165a1.291,1.291,0,0,1,.575.734,1.21,1.21,0,0,1,.017.7c-.042-.023-.087-.044-.127-.07s-.1-.073-.157-.11a.956.956,0,0,0-.206-.737A.979.979,0,0,0,1724.648,435.778Z" transform="translate(-1723.617 -434.644)" fill="#9c9c9c"/>
        <path id="Path_128" data-name="Path 128" d="M1725.186,435.2l.132.147c-.236,0-.468,0-.708,0a2.087,2.087,0,0,1-.213-.025l-.1-.106c-.074-.08-.145-.161-.222-.237-.122-.121-.248-.237-.394-.374h.78a.2.2,0,0,1,.174.067,2.286,2.286,0,0,0,.2.187.456.456,0,0,0,.094.05Z" transform="translate(-1723.571 -434.604)" fill="#787878"/>
        <path id="Path_129" data-name="Path 129" d="M1725.271,435.2l-.265-.286a3.452,3.452,0,0,1,.249-.245.3.3,0,0,1,.169-.06c.2-.007.4,0,.593,0a.32.32,0,0,1,.088.027.3.3,0,0,1-.044.094c-.161.159-.325.316-.489.474Z" transform="translate(-1723.656 -434.604)" fill="#909090"/>
        <path id="Path_130" data-name="Path 130" d="M1724.338,435.261l.1.106-.006.051-.127.022Z" transform="translate(-1723.611 -434.646)" fill="#bdbdbd"/>
        <path id="Path_131" data-name="Path 131" d="M1724.3,435.451l.127-.022a.614.614,0,0,0,0,.094l-.045.036-.094.022A1.139,1.139,0,0,0,1724.3,435.451Z" transform="translate(-1723.61 -434.656)" fill="#bbb"/>
        <path id="Path_132" data-name="Path 132" d="M1724.62,435.813a.993.993,0,1,1,.5,1.923.923.923,0,0,1-.961-.3.946.946,0,0,1-.211-.936.962.962,0,0,1,.573-.636Zm-.03.842c.121,0,.241.006.361,0a.213.213,0,0,0,.059-.416c-.021.144-.124.163-.243.159h-.168l-.008.148-.017.087Zm.265.254h-.335c-.016.112-.033.223-.044.334,0,.01.03.025.047.037.169,0,.336,0,.505,0a.428.428,0,0,0,.109-.015.316.316,0,0,0,.224-.281.281.281,0,0,0-.147-.27c-.054-.026-.086-.015-.1.036a.221.221,0,0,1-.26.155Z" transform="translate(-1723.585 -434.679)" fill="#ebebeb"/>
        <path id="Path_133" data-name="Path 133" d="M1724.889,436.974c.119,0,.216-.026.255-.155.015-.051.048-.063.1-.036a.281.281,0,0,1,.147.271.316.316,0,0,1-.224.281.428.428,0,0,1-.109.015c-.168,0-.337,0-.505,0,.03-.038.056-.08.089-.115C1724.728,437.143,1724.811,437.059,1724.889,436.974Z" transform="translate(-1723.627 -434.742)" fill="#ebebeb"/>
        <path id="Path_134" data-name="Path 134" d="M1724.615,436.67l.017-.087.177-.148c.118,0,.223-.015.243-.159a.213.213,0,0,1-.058.416h-.361Z" transform="translate(-1723.631 -434.711)" fill="#ebebeb"/>
        <path id="Path_135" data-name="Path 135" d="M1724.889,436.988c-.081.085-.165.169-.244.256-.033.036-.06.077-.089.115-.016-.012-.048-.027-.046-.037.011-.111.029-.222.044-.334Z" transform="translate(-1723.624 -434.756)" fill="#ebebeb"/>
        <path id="Path_136" data-name="Path 136" d="M1724.809,436.446l-.177.148.009-.148Z" transform="translate(-1723.632 -434.722)" fill="#ebebeb"/>
        <path id="Path_137" data-name="Path 137" d="M1724.615,436.7l.017.02Z" transform="translate(-1723.631 -434.738)" fill="#626262"/>
        <g id="Group_103" data-name="Group 103" transform="translate(0.965 1.539)">
          <path id="Path_138" data-name="Path 138" d="M1725.127,436.5a.261.261,0,0,0-.2-.125.2.2,0,0,0-.2.2.194.194,0,0,0,.034.11l.213.242a.067.067,0,0,1-.048.114.065.065,0,0,1-.049-.022l-.216-.244a.329.329,0,0,1-.067-.2.344.344,0,0,1,.332-.328.321.321,0,0,1,.178.047.5.5,0,0,1,.121.117.088.088,0,0,1,.023.054.065.065,0,0,1-.064.066h0A.065.065,0,0,1,1725.127,436.5Zm-.4.549a.261.261,0,0,0,.2.125.2.2,0,0,0,.2-.2.174.174,0,0,0-.033-.11l-.213-.241a.067.067,0,0,1,0-.094.063.063,0,0,1,.047-.02.064.064,0,0,1,.05.022l.216.244a.293.293,0,0,1,.067.2.315.315,0,0,1-.107.235.32.32,0,0,1-.226.094.328.328,0,0,1-.177-.047.514.514,0,0,1-.121-.117.1.1,0,0,1-.023-.054.065.065,0,0,1,.066-.066A.064.064,0,0,1,1724.725,437.05Z" transform="translate(-1724.595 -436.248)" fill="url(#linear-gradient)"/>
        </g>
      </g>
    </g>
  </g>
</svg>
