<svg xmlns="http://www.w3.org/2000/svg" width="13.99" height="13.991" viewBox="0 0 13.99 13.991">
  <g id="Group_75" data-name="Group 75" transform="translate(-24.007 -318)">
    <path id="Path_66" data-name="Path 66" d="M2227.324-231.449a7.011,7.011,0,0,1-6.96-7.065,7.015,7.015,0,0,1,6.955-6.925,7.01,7.01,0,0,1,7.034,6.993A7.011,7.011,0,0,1,2227.324-231.449Zm5.594-7.033a5.5,5.5,0,0,0-5.365-5.538,5.535,5.535,0,0,0-5.756,5.6,5.5,5.5,0,0,0,5.355,5.55A5.577,5.577,0,0,0,2232.918-238.483Z" transform="translate(-2196.356 563.44)"/>
    <path id="Path_71" data-name="Path 71" d="M2228.607-242.276c.257.345.543.563.587.824a7.185,7.185,0,0,1,.044,1.585,4.544,4.544,0,0,0,.75,3.151c.343.456.532,1.057-.149,1.3-.254.091-.811-.309-1.064-.62-1.366-1.671-.832-3.658-.806-5.55C2227.97-241.773,2228.3-241.959,2228.607-242.276Z" transform="translate(-2197.564 562.929)"/>
  </g>
</svg>
