<svg xmlns="http://www.w3.org/2000/svg" width="50.336" height="50.345" viewBox="0 0 50.336 50.345">
  <g id="Group_233" data-name="Group 233" transform="translate(537.492 276.787)">
    <path id="Path_248" data-name="Path 248" d="M-512.154-276.787a25.012,25.012,0,0,1,25,25.422,25.161,25.161,0,0,1-25.555,24.923A25.085,25.085,0,0,1-537.491-251.7,25.017,25.017,0,0,1-512.154-276.787ZM-513.948-271c-9.782.348-17.394,7.771-18.3,18.287-.567,6.563,3.842,17.666,14.156,19.666l.363-.036,3.788.847c7.975.745,14.016-2.464,18.464-8.988,3.8-5.573,3.829-14.948-.144-20.943C-499.954-268.7-505.946-271.982-513.948-271Z" transform="translate(0 0)" fill="#feda7d"/>
    <circle id="Ellipse_34" data-name="Ellipse 34" cx="20.185" cy="20.185" r="20.185" transform="translate(-532.133 -271.813)" fill="#fcb901"/>
    <path id="Path_250" data-name="Path 250" d="M-466.825-218.45c-3.06,1.81-6.546,3.157-9.1,5.513-9.152,8.433-8.258,21.848,1.612,29.408,1.189.911,2.231,2.015,3.342,3.03-10.312-2-14.722-13.1-14.155-19.665C-484.219-210.679-476.606-218.1-466.825-218.45Z" transform="translate(-47.123 -52.546)" fill="#dca308"/>
    <g id="Group_232" data-name="Group 232" transform="translate(-518.849 -262.663)">
      <g id="Group_231" data-name="Group 231" transform="translate(0 0)">
        <path id="Path_254" data-name="Path 254" d="M-338.6-129.155q-1.975-2.583-4.185-2.583a3.946,3.946,0,0,0-2.914,1.215,3.991,3.991,0,0,0-1.215,2.928,4.044,4.044,0,0,0,.691,2.293l4.42,5.013a1.364,1.364,0,0,1,.4.981,1.364,1.364,0,0,1-.4.981,1.334,1.334,0,0,1-.981.4,1.309,1.309,0,0,1-1.022-.47l-4.489-5.069a6.7,6.7,0,0,1-1.381-4.129,6.557,6.557,0,0,1,2.224-4.889,6.657,6.657,0,0,1,4.668-2.016,6.788,6.788,0,0,1,3.688.98,10.514,10.514,0,0,1,2.514,2.431,1.872,1.872,0,0,1,.483,1.132,1.334,1.334,0,0,1-.4.981,1.333,1.333,0,0,1-.98.4A1.306,1.306,0,0,1-338.6-129.155Zm-8.356,11.408q1.975,2.583,4.171,2.583a3.962,3.962,0,0,0,2.928-1.215,3.991,3.991,0,0,0,1.215-2.928,3.582,3.582,0,0,0-.691-2.293l-4.42-5.013a1.362,1.362,0,0,1-.4-.981,1.363,1.363,0,0,1,.4-.981,1.318,1.318,0,0,1,.967-.4,1.325,1.325,0,0,1,1.036.47l4.489,5.069a6.1,6.1,0,0,1,1.381,4.129,6.515,6.515,0,0,1-2.224,4.875,6.65,6.65,0,0,1-4.682,2.03,6.759,6.759,0,0,1-3.674-.981,10.5,10.5,0,0,1-2.514-2.431,1.87,1.87,0,0,1-.483-1.132,1.333,1.333,0,0,1,.4-.981,1.334,1.334,0,0,1,.981-.4A1.305,1.305,0,0,1-346.956-117.747Z" transform="translate(349.677 134.5)" fill="#805d00"/>
      </g>
    </g>
  </g>
</svg>
