<svg xmlns="http://www.w3.org/2000/svg" width="22.751" height="22" viewBox="0 0 22.751 22">
  <g id="comfortable" transform="translate(0.001 0.215)">
    <path id="Path_142" data-name="Path 142" d="M22.059,149.037l-.046-.046a.275.275,0,0,1-.077-.228,31.074,31.074,0,0,0,0-7.251.275.275,0,0,1,.077-.228,2.4,2.4,0,0,0,.27-3.125,2.36,2.36,0,0,0-3.559-.257l-.093.093a.273.273,0,0,1-.212.079,104.94,104.94,0,0,0-14.09,0,.27.27,0,0,1-.21-.079l-.046-.044A2.4,2.4,0,0,0,.8,137.795a2.34,2.34,0,0,0-.8,1.7,2.368,2.368,0,0,0,.69,1.744l.046.046a.275.275,0,0,1,.077.228,31.074,31.074,0,0,0,0,7.251.275.275,0,0,1-.077.228,2.4,2.4,0,0,0-.153,3.268,2.34,2.34,0,0,0,1.7.8h.075a2.367,2.367,0,0,0,1.669-.691l.092-.092a.271.271,0,0,1,.212-.079,104.945,104.945,0,0,0,14.09,0,.275.275,0,0,1,.212.079l.046.046a2.4,2.4,0,0,0,3.268.153,2.34,2.34,0,0,0,.8-1.7,2.367,2.367,0,0,0-.69-1.745Zm-.7,2.772a1.5,1.5,0,0,1-2.047-.114l-.046-.046a1.166,1.166,0,0,0-.9-.338,104.025,104.025,0,0,1-13.97,0,1.167,1.167,0,0,0-.9.338l-.092.092a1.466,1.466,0,0,1-2.14-.072,1.5,1.5,0,0,1,.114-2.047,1.162,1.162,0,0,0,.333-.964,30.169,30.169,0,0,1,0-7.043,1.161,1.161,0,0,0-.333-.964l-.046-.046a1.467,1.467,0,0,1,.072-2.14,1.42,1.42,0,0,1,.942-.35,1.567,1.567,0,0,1,1.1.464l.046.046a1.168,1.168,0,0,0,.9.339,104.03,104.03,0,0,1,13.97,0,1.162,1.162,0,0,0,.9-.339l.092-.092a1.467,1.467,0,0,1,2.214.163,1.506,1.506,0,0,1-.188,1.956,1.16,1.16,0,0,0-.333.963,30.209,30.209,0,0,1,0,7.043,1.162,1.162,0,0,0,.333.963l.046.046a1.466,1.466,0,0,1-.072,2.14Zm0,0" transform="translate(0 -131.279)"/>
    <path id="Path_143" data-name="Path 143" d="M75.288,221.34a.447.447,0,0,0-.324.542,14.592,14.592,0,0,1,0,7.221.447.447,0,1,0,.866.218,15.473,15.473,0,0,0,0-7.658.446.446,0,0,0-.542-.324Zm0,0" transform="translate(-71.599 -211.634)"/>
    <path id="Path_144" data-name="Path 144" d="M231.382,2.854a.447.447,0,0,0,.376.326l2.889.36a.456.456,0,0,0,.056,0,.447.447,0,0,0,.055-.89l-1.8-.225L234.9.941a.447.447,0,0,0-.212-.8l-2.649-.354a.447.447,0,0,0-.118.885L233.5.885l-1.962,1.5a.446.446,0,0,0-.16.471Zm0,0" transform="translate(-221.021 0)"/>
    <path id="Path_145" data-name="Path 145" d="M338.224,52.287a.446.446,0,0,0,.376.326l2.507.313a.5.5,0,0,0,.056,0,.447.447,0,0,0,.055-.89l-1.422-.177,1.579-1.206a.447.447,0,0,0-.212-.8l-2.3-.308a.446.446,0,1,0-.118.885l1.229.165-1.589,1.214a.446.446,0,0,0-.16.471Zm0,0" transform="translate(-323.085 -47.537)"/>
  </g>
</svg>
