<svg xmlns="http://www.w3.org/2000/svg" width="22.327" height="22.344" viewBox="0 0 22.327 22.344">
  <g id="dollar" transform="translate(-1.777 -1.776)">
    <path id="Path_85" data-name="Path 85" d="M32.411,20.069a.312.312,0,0,1-.222-.09l-2.222-2.222a.312.312,0,0,1-.025-.412,7.09,7.09,0,0,0,1.51-4.4A7.177,7.177,0,0,0,20.814,6.663a.312.312,0,0,1-.4-.09l-1.847-2.54a.3.3,0,0,1,.094-.446A10.922,10.922,0,0,1,32.648,19.96a.312.312,0,0,1-.225.109ZM30.6,17.507l1.788,1.785A10.3,10.3,0,0,0,19.282,3.945l1.482,2.044a7.8,7.8,0,0,1,11.312,6.959A7.708,7.708,0,0,1,30.6,17.507Z" transform="translate(-11.332 0)" stroke="#000" stroke-width="0.5"/>
    <path id="Path_86" data-name="Path 86" d="M4.808,25.811a.312.312,0,0,1-.225-.109A10.922,10.922,0,0,1,5.766,10.461a.312.312,0,0,1,.459.053l1.847,2.54a.312.312,0,0,1-.041.409,7.159,7.159,0,0,0-.755,9.624.312.312,0,0,1-.025.412L5.03,25.72a.312.312,0,0,1-.222.09ZM5.922,11.16A10.3,10.3,0,0,0,4.83,25.034l1.785-1.785A7.708,7.708,0,0,1,5.142,18.69,7.839,7.839,0,0,1,7.407,13.2Z" transform="translate(0 -5.742)" stroke="#000" stroke-width="0.5"/>
    <path id="Path_87" data-name="Path 87" d="M21.3,60.27a10.921,10.921,0,0,1-7.011-2.548.312.312,0,0,1-.02-.46L16.49,55.04a.312.312,0,0,1,.412-.025,7.156,7.156,0,0,0,8.794,0,.312.312,0,0,1,.412.025l2.222,2.222a.312.312,0,0,1-.019.459A10.922,10.922,0,0,1,21.3,60.27Zm-6.344-2.809a10.3,10.3,0,0,0,12.688,0l-1.785-1.785a7.78,7.78,0,0,1-9.118,0Z" transform="translate(-8.356 -36.4)" stroke="#000" stroke-width="0.5"/>
    <path id="Path_88" data-name="Path 88" d="M25.993,30.986a4.993,4.993,0,1,1,4.993-4.993A4.993,4.993,0,0,1,25.993,30.986Zm0-9.362a4.369,4.369,0,1,0,4.369,4.369A4.369,4.369,0,0,0,25.993,21.624Z" transform="translate(-13.05 -13.045)" stroke="#000" stroke-width="0.5"/>
    <path id="Path_89" data-name="Path 89" d="M33.56,33.617A1.56,1.56,0,0,1,32,32.057h.624a.936.936,0,0,0,1.872,0c0-.468-.34-.786-1.008-.936C32.552,30.9,32,30.319,32,29.56a1.56,1.56,0,0,1,3.121,0H34.5a.936.936,0,0,0-1.872,0c0,.624.624.855,1.008.936.961.228,1.489.78,1.489,1.56A1.56,1.56,0,0,1,33.56,33.617Z" transform="translate(-20.617 -17.861)" stroke="#000" stroke-width="0.5"/>
    <path id="Path_90" data-name="Path 90" d="M36,26h.624v.936H36Z" transform="translate(-23.369 -16.485)" stroke="#000" stroke-width="0.5"/>
    <path id="Path_91" data-name="Path 91" d="M36,45h.624v.936H36Z" transform="translate(-23.369 -29.556)" stroke="#000" stroke-width="0.5"/>
  </g>
</svg>
