<svg xmlns="http://www.w3.org/2000/svg" width="33.768" height="33.792" viewBox="0 0 33.768 33.792">
  <g id="dollar" transform="translate(-1.774 -1.771)">
    <path id="Path_85" data-name="Path 85" d="M39.7,29.52a.476.476,0,0,1-.338-.138L35.976,26a.476.476,0,0,1-.038-.628,10.806,10.806,0,0,0,2.3-6.7A10.939,10.939,0,0,0,22.026,9.087a.476.476,0,0,1-.614-.138L18.6,5.078a.457.457,0,0,1,.143-.68A16.647,16.647,0,0,1,40.062,29.354a.476.476,0,0,1-.342.166Zm-2.759-3.9,2.725,2.721A15.7,15.7,0,0,0,19.691,4.945L21.95,8.06A11.891,11.891,0,0,1,39.191,18.666,11.748,11.748,0,0,1,36.942,25.615Z" transform="translate(-8.638 0)" stroke="#000" stroke-width="0.5"/>
    <path id="Path_86" data-name="Path 86" d="M6.264,33.9a.476.476,0,0,1-.342-.166,16.647,16.647,0,0,1,1.8-23.23.476.476,0,0,1,.7.081l2.816,3.872a.476.476,0,0,1-.062.623,10.911,10.911,0,0,0-1.151,14.668.476.476,0,0,1-.038.628L6.6,33.759A.476.476,0,0,1,6.264,33.9Zm1.7-22.331A15.7,15.7,0,0,0,6.3,32.712l2.721-2.721a11.748,11.748,0,0,1-2.245-6.949,11.948,11.948,0,0,1,3.453-8.366Z" transform="translate(0 -4.377)" stroke="#000" stroke-width="0.5"/>
    <path id="Path_87" data-name="Path 87" d="M25.032,63.059a16.645,16.645,0,0,1-10.685-3.884.476.476,0,0,1-.031-.7L17.7,55.087a.476.476,0,0,1,.628-.038,10.906,10.906,0,0,0,13.4,0,.476.476,0,0,1,.628.038l3.386,3.386a.476.476,0,0,1-.029.7A16.647,16.647,0,0,1,25.032,63.059Zm-9.669-4.281a15.7,15.7,0,0,0,19.339,0l-2.721-2.721a11.857,11.857,0,0,1-13.9,0Z" transform="translate(-6.369 -27.745)" stroke="#000" stroke-width="0.5"/>
    <path id="Path_88" data-name="Path 88" d="M28.61,36.22a7.61,7.61,0,1,1,7.61-7.61A7.61,7.61,0,0,1,28.61,36.22Zm0-14.269a6.659,6.659,0,1,0,6.659,6.659A6.659,6.659,0,0,0,28.61,21.951Z" transform="translate(-9.947 -9.944)" stroke="#000" stroke-width="0.5"/>
    <path id="Path_89" data-name="Path 89" d="M34.378,36.561A2.378,2.378,0,0,1,32,34.183h.951a1.427,1.427,0,0,0,2.854,0c0-.713-.518-1.2-1.536-1.427C32.842,32.419,32,31.534,32,30.378a2.378,2.378,0,0,1,4.756,0h-.951a1.427,1.427,0,0,0-2.854,0c0,.951.951,1.3,1.536,1.427,1.465.347,2.269,1.189,2.269,2.378A2.378,2.378,0,0,1,34.378,36.561Z" transform="translate(-15.715 -13.614)" stroke="#000" stroke-width="0.5"/>
    <path id="Path_90" data-name="Path 90" d="M36,26h.951v1.427H36Z" transform="translate(-17.813 -12.565)" stroke="#000" stroke-width="0.5"/>
    <path id="Path_91" data-name="Path 91" d="M36,45h.951v1.427H36Z" transform="translate(-17.813 -22.529)" stroke="#000" stroke-width="0.5"/>
  </g>
</svg>
