<svg xmlns="http://www.w3.org/2000/svg" width="28.607" height="28.608" viewBox="0 0 28.607 28.608">
  <g id="Group_82" data-name="Group 82" transform="translate(-1497.734 3101.121)">
    <path id="Path_74" data-name="Path 74" d="M1524.389-3086.786a12.356,12.356,0,0,1-12.351,12.321,12.348,12.348,0,0,1-12.352-12.448,12.358,12.358,0,0,1,12.415-12.256A12.354,12.354,0,0,1,1524.389-3086.786Zm-14.555,1.2c-.07.419-.125.694-.161.973a2.238,2.238,0,0,0,1.664,2.645,2.252,2.252,0,0,0,2.65-1.489c.275-.715.445-1.471.725-2.183a1.9,1.9,0,0,1,.658-1,7.427,7.427,0,0,0,3.231-3.84c.308-.644.439-1.36-.335-1.6a1.565,1.565,0,0,0-1.311.748,5.917,5.917,0,0,1-5.838,3.774c-2.745.075-4.4,1.8-5.511,4.158-.342.727-.156,1.349.656,1.415.344.029.86-.45,1.083-.825C1507.968-3083.859,1508.42-3085.023,1509.834-3085.587Zm2.94-2.75a1.818,1.818,0,0,0,1.757-1.82,1.841,1.841,0,0,0-1.894-1.7,1.69,1.69,0,0,0-1.643,1.781A1.668,1.668,0,0,0,1512.774-3088.337Z" fill="#f4b204"/>
    <path id="Path_75" data-name="Path 75" d="M1509.834-3085.587c-1.414.564-1.866,1.728-2.489,2.774-.223.375-.739.854-1.083.825-.812-.066-1-.688-.656-1.415,1.106-2.353,2.766-4.083,5.511-4.158a5.917,5.917,0,0,0,5.838-3.774,1.565,1.565,0,0,1,1.311-.748c.774.241.643.957.335,1.6a7.427,7.427,0,0,1-3.231,3.84,1.9,1.9,0,0,0-.658,1c-.28.712-.45,1.468-.725,2.183a2.252,2.252,0,0,1-2.65,1.489,2.238,2.238,0,0,1-1.664-2.645C1509.709-3084.893,1509.764-3085.168,1509.834-3085.587Z" fill="#f4b204"/>
    <path id="Path_76" data-name="Path 76" d="M1512.774-3088.337a1.668,1.668,0,0,1-1.78-1.739,1.69,1.69,0,0,1,1.643-1.781,1.841,1.841,0,0,1,1.894,1.7A1.818,1.818,0,0,1,1512.774-3088.337Z" fill="#f4b204"/>
    <path id="Path_77" data-name="Path 77" d="M1512.038-3072.513a14.32,14.32,0,0,1-14.3-14.3,14.321,14.321,0,0,1,14.3-14.3,14.32,14.32,0,0,1,14.3,14.3A14.32,14.32,0,0,1,1512.038-3072.513Zm0-26.608a12.318,12.318,0,0,0-12.3,12.3,12.318,12.318,0,0,0,12.3,12.3,12.318,12.318,0,0,0,12.3-12.3A12.318,12.318,0,0,0,1512.038-3099.121Z" fill="#fff"/>
    <path id="Path_78" data-name="Path 78" d="M1511.966-3080.252a63.342,63.342,0,0,1-5.219-4.652c-1.784-1.985-1.854-4.568-.5-5.978,1.469-1.534,3.089-1.3,5.72.837,2.886-2.082,4.724-2.311,6.073-.756,1.274,1.469.866,4.572-1.128,6.585A56.246,56.246,0,0,1,1511.966-3080.252Z" fill="#fff"/>
  </g>
</svg>
