<svg xmlns="http://www.w3.org/2000/svg" width="27.43" height="22.401" viewBox="0 0 27.43 22.401">
  <g id="gift-card" transform="translate(0.008 -0.484)">
    <path id="Path_92" data-name="Path 92" d="M383.984,104.473h.914V106.3h-.914Zm0,0" transform="translate(-362.048 -98.046)"/>
    <path id="Path_93" data-name="Path 93" d="M351.984,104.473h.914V106.3h-.914Zm0,0" transform="translate(-331.877 -98.046)"/>
    <path id="Path_94" data-name="Path 94" d="M319.984,104.473h.914V106.3h-.914Zm0,0" transform="translate(-301.706 -98.046)"/>
    <path id="Path_95" data-name="Path 95" d="M287.984,104.473h.914V106.3h-.914Zm0,0" transform="translate(-271.534 -98.046)"/>
    <path id="Path_96" data-name="Path 96" d="M383.984,256.473h.914v.914h-.914Zm0,0" transform="translate(-362.048 -241.359)"/>
    <path id="Path_97" data-name="Path 97" d="M351.984,256.473h.914v.914h-.914Zm0,0" transform="translate(-331.877 -241.359)"/>
    <path id="Path_98" data-name="Path 98" d="M319.984,256.473h.914v.914h-.914Zm0,0" transform="translate(-301.706 -241.359)"/>
    <path id="Path_99" data-name="Path 99" d="M287.984,256.473h.914v.914h-.914Zm0,0" transform="translate(-271.534 -241.359)"/>
    <path id="Path_100" data-name="Path 100" d="M1.363,13.708v2.777a2.289,2.289,0,0,0,2.286,2.286h8.265l8.138,3.905a2.126,2.126,0,0,0,2.84-1.006L24.3,18.7a2.285,2.285,0,0,0,1.746-2.214V15.029l1.163-2.444a2.141,2.141,0,0,0-1-2.846l-.161-.077V6.427a2.289,2.289,0,0,0-2.286-2.286H14.547L7.363.693A2.126,2.126,0,0,0,4.523,1.7L3.346,4.172A2.282,2.282,0,0,0,1.363,6.427V8.339L.2,10.784a2.141,2.141,0,0,0,1,2.846Zm24.688-2.994a1.224,1.224,0,0,1,.338,1.478l-.338.709ZM22.064,21.275a1.211,1.211,0,0,1-1.618.575l-6.419-3.079h9.231Zm3.072-4.79a1.372,1.372,0,0,1-1.372,1.372H8.678V12.57a5.449,5.449,0,0,0,3.785,1.522v-.914a4.542,4.542,0,0,1-3.15-1.264H25.136ZM9.1,10.715,10,8.454A1.039,1.039,0,1,1,11.352,9.81ZM23.765,5.056a1.372,1.372,0,0,1,1.372,1.372V11H10.85l.843-.338A1.957,1.957,0,1,0,9.155,8.115l-.477,1.2V5.056ZM5.35,2.093a1.21,1.21,0,0,1,1.618-.575l5.467,2.624H4.374ZM2.277,6.427A1.372,1.372,0,0,1,3.649,5.056H7.763V8.995l-.35-.879A1.953,1.953,0,1,0,4.875,10.66L5.718,11H2.277Zm5.188,4.288-2.248-.9A1.042,1.042,0,1,1,6.564,8.452Zm-5.188,1.2H7.255a4.542,4.542,0,0,1-3.15,1.264v.914a5.446,5.446,0,0,0,3.657-1.406v5.171H3.649a1.372,1.372,0,0,1-1.372-1.372Zm-1.252-.736.337-.71v2.188A1.224,1.224,0,0,1,1.025,11.177Zm0,0" transform="translate(0 0)"/>
  </g>
</svg>
