<svg xmlns="http://www.w3.org/2000/svg" width="22.751" height="25.886" viewBox="0 0 22.751 25.886">
  <g id="like" transform="translate(-31)">
    <g id="Group_129" data-name="Group 129" transform="translate(31 4.601)">
      <g id="Group_128" data-name="Group 128" transform="translate(0)">
        <path id="Path_146" data-name="Path 146" d="M53.17,102.426a2.274,2.274,0,0,0-1.694-3.792H47.06a14.7,14.7,0,0,0,.624-3.843v-.758A3.037,3.037,0,0,0,44.651,91h-.758a.758.758,0,0,0-.736.574l-.413,1.653c-.579,2.315-2.417,4.868-4.319,5.332a2.278,2.278,0,0,0-2.116-1.442h-4.55a.759.759,0,0,0-.758.758v13.651a.759.759,0,0,0,.758.758h4.55a2.277,2.277,0,0,0,2.054-1.3l2.606.869a8.323,8.323,0,0,0,2.638.428h6.353a2.276,2.276,0,0,0,2.115-3.113,2.274,2.274,0,0,0,1.1-3.712,2.271,2.271,0,0,0,0-3.033Zm-16.1,7.584a.759.759,0,0,1-.758.758H32.517V98.634h3.792a.759.759,0,0,1,.758.758Zm12.892-6.825h1.517a.758.758,0,0,1,0,1.517H49.959a.758.758,0,0,0,0,1.517h1.517a.758.758,0,1,1,0,1.517H49.959a.758.758,0,0,0,0,1.517.758.758,0,1,1,0,1.517H43.606a6.81,6.81,0,0,1-2.159-.35l-2.864-.955v-9.384a6.111,6.111,0,0,0,3.405-2.212A11.066,11.066,0,0,0,44.215,93.6l.269-1.078h.166a1.519,1.519,0,0,1,1.517,1.517v.758a12,12,0,0,1-.726,3.843H43.892a.758.758,0,0,0,0,1.517h7.584a.758.758,0,1,1,0,1.517H49.959a.758.758,0,0,0,0,1.517Z" transform="translate(-31 -91)"/>
      </g>
    </g>
    <g id="Group_131" data-name="Group 131" transform="translate(34.088 21.302)">
      <g id="Group_130" data-name="Group 130" transform="translate(0 0)">
        <circle id="Ellipse_6" data-name="Ellipse 6" cx="0.756" cy="0.756" r="0.756"/>
      </g>
    </g>
    <g id="Group_133" data-name="Group 133" transform="translate(44.651)">
      <g id="Group_132" data-name="Group 132" transform="translate(0)">
        <path id="Path_147" data-name="Path 147" d="M301.758,0A.758.758,0,0,0,301,.758V2.326a.758.758,0,1,0,1.517,0V.758A.758.758,0,0,0,301.758,0Z" transform="translate(-301)"/>
      </g>
    </g>
    <g id="Group_135" data-name="Group 135" transform="translate(39.824 2.05)">
      <g id="Group_134" data-name="Group 134">
        <path id="Path_148" data-name="Path 148" d="M207.908,41.836l-1.072-1.072a.758.758,0,0,0-1.072,1.072l1.072,1.072a.758.758,0,1,0,1.072-1.072Z" transform="translate(-205.54 -40.542)"/>
      </g>
    </g>
    <g id="Group_137" data-name="Group 137" transform="translate(48.404 2.05)">
      <g id="Group_136" data-name="Group 136">
        <path id="Path_149" data-name="Path 149" d="M377.614,40.764a.758.758,0,0,0-1.072,0l-1.073,1.072a.758.758,0,0,0,1.073,1.073l1.072-1.072A.758.758,0,0,0,377.614,40.764Z" transform="translate(-375.247 -40.542)"/>
      </g>
    </g>
  </g>
</svg>
