<svg xmlns="http://www.w3.org/2000/svg" width="18.235" height="17.233" viewBox="0 0 18.235 17.233">
  <g id="Group_120" data-name="Group 120" transform="translate(-15.845 -16.416)">
    <path id="Path_36" data-name="Path 36" d="M1887.041-1097.2c-2.426,0-4.85.018-7.276-.006-1.431-.014-1.751-.322-1.756-1.523,0-1.218.3-1.527,1.746-1.532q7.363-.026,14.724,0c1.432,0,1.753.321,1.757,1.525s-.331,1.52-1.747,1.532C1892.006-1097.186,1889.523-1097.2,1887.041-1097.2Z" transform="translate(-1862.156 1116.693)"/>
    <path id="Path_37" data-name="Path 37" d="M1887.3-1092.184c2.308,0,4.616-.01,6.925,0,1.633.01,1.973.275,2,1.465.025,1.222-.341,1.544-1.909,1.547q-7.183.018-14.368,0c-1.507,0-1.852-.281-1.908-1.379-.061-1.189.324-1.612,1.647-1.628C1882.218-1092.207,1884.757-1092.185,1887.3-1092.184Z" transform="translate(-1862.157 1115.708)"/>
    <path id="Path_38" data-name="Path 38" d="M1884.7-1084.152c1.672,0,3.343.016,5.015-.005,1.018-.013,1.468.474,1.483,1.466.017,1.131-.337,1.581-1.514,1.591-3.4.033-6.8.009-10.2.014-.988,0-1.486-.438-1.48-1.463.007-1.176.3-1.563,1.511-1.592C1881.237-1084.182,1882.967-1084.152,1884.7-1084.152Z" transform="translate(-1862.154 1114.73)"/>
  </g>
</svg>
