<svg xmlns="http://www.w3.org/2000/svg" viewBox="0 0 307.06 83.78">
  <g id="Layer_2" data-name="Layer 2">
    <g id="Layer_1-2" data-name="Layer 1">
      <g>
        <g>
          <path d="M80,51.26a25.23,25.23,0,0,1-9,27.45,25.08,25.08,0,0,1-15.2,5.07H.12v-20H55.85a5.19,5.19,0,1,0,0-10.37H25.33A25.68,25.68,0,0,1,18,52.32a25.51,25.51,0,0,1-17-17A25.39,25.39,0,0,1,18,3.77,10.53,10.53,0,0,1,19.8,3.3l.82-.24L40.3,22.74h-15a5.19,5.19,0,0,0,0,10.37H61.51a1.63,1.63,0,0,1,.7.24h.12l.24.11h.35l.71.36h.12l1.41.35h.12l.7.35h.12l1.06.36h.36l.7.35,1.06.71.59.35.71.35.71.36.11.12,1.42,1.06a6.84,6.84,0,0,1,.59.47l.35.35.24.24a.46.46,0,0,1,.35.11l.35.36,1.06,1.06.36.35.23.24v.35l.36.36.11.11.36.71.35.35.35.36.12.23L79.06,46l.12.12.71,1.42.12.23.35,1.06v.35l.35.83ZM81.77,1.41v20H50.2l-20-20Z" fill="#fb0"/>
          <path d="M113.59,1.41V31.46l-20-20v-10Zm-20,19.21,20,20V82.36h-20Z" fill="#fb0"/>
          <path d="M199.13,19.21a40.3,40.3,0,0,1,0,45.6c-.12.11-.24.23-.35.35a40.37,40.37,0,0,1-33.11,17.32h-40.3V33.58l20.15,20.15v8.6h21.56a19.88,19.88,0,0,0,15.2-8.6v-.12a21,21,0,0,0,3.42-11.54,20.12,20.12,0,0,0-20-20.27H145.52V44.66L125.37,24.51v-23h40.3a40.37,40.37,0,0,1,33.11,17.32Z" fill="#fb0"/>
          <path d="M241.67,25.45l11.66,19.33L230.47,82.36H207Zm65.39,57H283.61l-4.83-8L245.44,19.21,257.1,0Z" fill="#fb0"/>
        </g>
        <polygon points="257.11 62.77 245.22 82.33 268.98 82.36 257.11 62.77" fill="#fb0"/>
      </g>
    </g>
  </g>
</svg>
