<svg xmlns="http://www.w3.org/2000/svg" width="20.5" height="20.5" viewBox="0 0 20.5 20.5">
  <g id="Path_109" data-name="Path 109" fill="none">
    <path d="M10.25,0A10.25,10.25,0,1,1,0,10.25,10.25,10.25,0,0,1,10.25,0Z" stroke="none"/>
    <path d="M 10.25 2 C 5.700929641723633 2 2 5.700929641723633 2 10.25 C 2 14.79907035827637 5.700929641723633 18.5 10.25 18.5 C 14.79907035827637 18.5 18.5 14.79907035827637 18.5 10.25 C 18.5 5.700929641723633 14.79907035827637 2 10.25 2 M 10.25 0 C 15.91092014312744 0 20.5 4.589079856872559 20.5 10.25 C 20.5 15.91092014312744 15.91092014312744 20.5 10.25 20.5 C 4.589079856872559 20.5 0 15.91092014312744 0 10.25 C 0 4.589079856872559 4.589079856872559 0 10.25 0 Z" stroke="none" fill="#2b2b2b"/>
  </g>
</svg>
