<svg xmlns="http://www.w3.org/2000/svg" width="28.607" height="38.672" viewBox="0 0 28.607 38.672">
  <g id="Group_283" data-name="Group 283" transform="translate(-4184.196 -453.392)">
    <path id="Path_52" data-name="Path 52" d="M1484.249-3008.314h2.087c0,3.107.037,6.239-.051,9.367-.01.348-.7.836-1.139.94-.216.051-.849-.627-.857-.985C1484.219-3002.075,1484.249-3005.16,1484.249-3008.314Z" transform="translate(2713.218 3490.068)" fill="#314459"/>
    <path id="Path_53" data-name="Path 53" d="M1497.634-3022.341a12.355,12.355,0,0,1-12.351,12.32,12.347,12.347,0,0,1-12.352-12.447,12.358,12.358,0,0,1,12.415-12.256A12.354,12.354,0,0,1,1497.634-3022.341Zm-14.555,1.2c-.07.419-.125.694-.161.972a2.237,2.237,0,0,0,1.664,2.645,2.25,2.25,0,0,0,2.65-1.488c.275-.715.445-1.471.725-2.184a1.9,1.9,0,0,1,.658-1,7.426,7.426,0,0,0,3.231-3.84c.308-.644.439-1.36-.335-1.6a1.564,1.564,0,0,0-1.311.747,5.917,5.917,0,0,1-5.838,3.775c-2.745.074-4.4,1.8-5.511,4.158-.342.727-.156,1.348.656,1.415.344.028.86-.45,1.083-.825C1481.213-3019.414,1481.665-3020.578,1483.079-3021.142Zm2.94-2.75a1.817,1.817,0,0,0,1.757-1.82,1.841,1.841,0,0,0-1.894-1.7,1.689,1.689,0,0,0-1.642,1.781A1.667,1.667,0,0,0,1486.019-3023.892Z" transform="translate(2713.218 3490.068)"/>
    <path id="Path_54" data-name="Path 54" d="M1483.079-3021.142c-1.414.564-1.866,1.728-2.489,2.774-.223.375-.739.853-1.083.825-.812-.067-1-.688-.656-1.415,1.107-2.353,2.766-4.084,5.511-4.158a5.917,5.917,0,0,0,5.838-3.775,1.564,1.564,0,0,1,1.311-.747c.774.241.643.957.335,1.6a7.426,7.426,0,0,1-3.231,3.84,1.9,1.9,0,0,0-.658,1c-.28.713-.45,1.469-.725,2.184a2.25,2.25,0,0,1-2.65,1.488,2.237,2.237,0,0,1-1.664-2.645C1482.954-3020.448,1483.009-3020.723,1483.079-3021.142Z" transform="translate(2713.218 3490.068)" fill="#fff"/>
    <path id="Path_55" data-name="Path 55" d="M1486.019-3023.892a1.667,1.667,0,0,1-1.779-1.739,1.689,1.689,0,0,1,1.642-1.781,1.841,1.841,0,0,1,1.894,1.7A1.817,1.817,0,0,1,1486.019-3023.892Z" transform="translate(2713.218 3490.068)" fill="#fff"/>
    <path id="Path_56" data-name="Path 56" d="M1485.283-3008.069a14.32,14.32,0,0,1-14.3-14.3,14.32,14.32,0,0,1,14.3-14.3,14.32,14.32,0,0,1,14.3,14.3A14.32,14.32,0,0,1,1485.283-3008.069Zm0-26.607a12.318,12.318,0,0,0-12.3,12.3,12.318,12.318,0,0,0,12.3,12.3,12.317,12.317,0,0,0,12.3-12.3A12.317,12.317,0,0,0,1485.283-3034.676Z" transform="translate(2713.218 3490.068)" fill="#fff"/>
  </g>
</svg>
