<svg id="Pickup_Flag" data-name="Pickup Flag" xmlns="http://www.w3.org/2000/svg" width="22.872" height="17.574" viewBox="0 0 22.872 17.574">
  <path id="Path_49" data-name="Path 49" d="M1336.724-863.679c-1.958.563-2.582,2.333-3.436,3.865-1.028,1.844-1.752,2.366-2.787,1.838s-1.013-1.414,0-3.343a10.713,10.713,0,0,1,9.853-6.217c4.339-.039,7.007-2.177,8.711-5.916.106-.231.208-.467.336-.687.515-.9,1.232-1.561,2.284-1.013a1.616,1.616,0,0,1,.657,2.387c-1.226,2.66-2.551,5.184-5.253,6.717a4.145,4.145,0,0,0-1.487,1.864c-.492,1.077-.726,2.268-1.136,3.386-.861,2.348-2.547,3.372-4.713,2.917-2.04-.428-3.067-2.134-2.838-4.726.023-.253.078-.5.118-.757l.048-.561Z" transform="translate(-1329.73 875.35)"/>
  <path id="Path_50" data-name="Path 50" d="M1341.692-868.693a3.037,3.037,0,0,1-2.98-2.867,3.115,3.115,0,0,1,2.937-3.2,3.024,3.024,0,0,1,3.074,3.025A2.952,2.952,0,0,1,1341.692-868.693Z" transform="translate(-1329.309 875.377)"/>
</svg>
