<svg xmlns="http://www.w3.org/2000/svg" width="12.216" height="14.024" viewBox="0 0 12.216 14.024">
  <g id="Group_76" data-name="Group 76" transform="translate(-24 -377.429)">
    <path id="Path_67" data-name="Path 67" d="M2226.351-166.061a1.881,1.881,0,0,0-1.256-2.218,3.22,3.22,0,0,1-1.29-3.958,3.377,3.377,0,0,1,3.189-2.329,3.357,3.357,0,0,1,3.245,2.443c.437,1.446.012,3.235-1.3,3.824s-1.315,1.471-1.267,2.559a6.167,6.167,0,0,1-.039,1.594c-.064.281-.449.489-.688.73-.2-.232-.525-.442-.57-.7A12.909,12.909,0,0,1,2226.351-166.061Zm.537-2.952a2.081,2.081,0,0,0,2.145-1.914,2.026,2.026,0,0,0-1.978-2.211,2.074,2.074,0,0,0-2.075,1.986A2.021,2.021,0,0,0,2226.887-169.012Z" transform="translate(-2196.879 551.994)"/>
    <path id="Path_68" data-name="Path 68" d="M2221.663-161.876c2.167,2.124,7.807,2.1,9.644-.068-.716-.283-1.352-.56-2.006-.786-.512-.178-.977-.454-.687-1.013.129-.25.709-.371,1.08-.362a3.58,3.58,0,0,1,1.077.4c.95.369,1.825.9,1.8,2.026-.024,1.11-.906,1.658-1.845,2.022a12.268,12.268,0,0,1-8.4.109,3.754,3.754,0,0,1-1.006-.577c-1.268-.918-1.31-2.194-.021-3.1a7.132,7.132,0,0,1,2.109-.909c.273-.078.653.215.985.339-.2.33-.315.79-.606.963A17.952,17.952,0,0,1,2221.663-161.876Z" transform="translate(-2196.355 550.31)"/>
  </g>
</svg>
