<svg xmlns="http://www.w3.org/2000/svg" width="21.847" height="16.787" viewBox="0 0 21.847 16.787">
  <g id="Pickup_Flag" data-name="Pickup Flag" transform="translate(-28.077 -691.107)">
    <path id="Path_49" data-name="Path 49" d="M1336.41-864.2c-1.87.538-2.466,2.228-3.282,3.692-.982,1.761-1.673,2.26-2.662,1.756s-.968-1.351,0-3.193a10.233,10.233,0,0,1,9.411-5.938c4.145-.037,6.693-2.08,8.321-5.651.1-.221.2-.446.321-.656.492-.855,1.177-1.491,2.182-.968a1.543,1.543,0,0,1,.628,2.28c-1.171,2.541-2.437,4.952-5.018,6.416a3.961,3.961,0,0,0-1.42,1.78c-.47,1.029-.693,2.166-1.085,3.234-.822,2.243-2.433,3.221-4.5,2.786-1.949-.409-2.93-2.038-2.711-4.514.022-.242.075-.482.113-.723l.046-.536Z" transform="translate(-1301.653 1566.456)"/>
    <path id="Path_50" data-name="Path 50" d="M1341.558-868.965a2.9,2.9,0,0,1-2.847-2.739,2.975,2.975,0,0,1,2.8-3.061,2.888,2.888,0,0,1,2.936,2.889A2.82,2.82,0,0,1,1341.558-868.965Z" transform="translate(-1301.653 1566.456)"/>
  </g>
</svg>
