<svg xmlns="http://www.w3.org/2000/svg" width="24.703" height="24.703" viewBox="0 0 24.703 24.703">
  <path id="Path_53" data-name="Path 53" d="M1497.634-3022.341a12.355,12.355,0,0,1-12.351,12.32,12.347,12.347,0,0,1-12.352-12.447,12.358,12.358,0,0,1,12.415-12.256A12.354,12.354,0,0,1,1497.634-3022.341Zm-14.555,1.2c-.07.419-.125.694-.161.972a2.237,2.237,0,0,0,1.664,2.645,2.25,2.25,0,0,0,2.65-1.488c.275-.715.445-1.471.725-2.184a1.9,1.9,0,0,1,.658-1,7.426,7.426,0,0,0,3.231-3.84c.308-.644.439-1.36-.335-1.6a1.564,1.564,0,0,0-1.311.747,5.917,5.917,0,0,1-5.838,3.775c-2.745.074-4.4,1.8-5.511,4.158-.342.727-.156,1.348.656,1.415.344.028.86-.45,1.083-.825C1481.213-3019.414,1481.665-3020.578,1483.079-3021.142Zm2.94-2.75a1.817,1.817,0,0,0,1.757-1.82,1.841,1.841,0,0,0-1.894-1.7,1.689,1.689,0,0,0-1.642,1.781A1.667,1.667,0,0,0,1486.019-3023.892Z" transform="translate(-1472.931 3034.724)"/>
</svg>
