<svg xmlns="http://www.w3.org/2000/svg" width="21.567" height="21.567" viewBox="0 0 21.567 21.567">
  <g id="limited-edition" transform="translate(-0.001 0)">
    <path id="Path_188" data-name="Path 188" d="M171.838,163.073l-1.818-.507-1.044-1.572a.634.634,0,0,0-1.053,0l-1.044,1.572-1.818.507a.632.632,0,0,0-.325,1l1.173,1.479-.08,1.886a.632.632,0,0,0,.852.619l1.768-.659,1.768.659a.632.632,0,0,0,.852-.619l-.08-1.886,1.173-1.479a.632.632,0,0,0-.325-1Zm-1.984,1.879a.632.632,0,0,0-.136.419l.049,1.17-1.1-.408a.632.632,0,0,0-.441,0l-1.1.408.049-1.17a.632.632,0,0,0-.136-.419l-.727-.917,1.128-.314a.632.632,0,0,0,.357-.259l.647-.975.647.975a.632.632,0,0,0,.357.259l1.128.314Z" transform="translate(-157.666 -153.944)"/>
    <path id="Path_189" data-name="Path 189" d="M21.383,10.337,20.319,9.274,21,7.933a.632.632,0,0,0-.276-.85L19.386,6.4l.235-1.485a.632.632,0,0,0-.525-.723l-1.485-.235-.235-1.485a.632.632,0,0,0-.723-.525l-1.485.235L14.484.842a.632.632,0,0,0-.85-.276l-1.34.683L11.231.185a.632.632,0,0,0-.894,0L9.274,1.248,7.934.566a.632.632,0,0,0-.85.276L6.4,2.182,4.916,1.947a.632.632,0,0,0-.723.525L3.958,3.957l-1.485.235a.632.632,0,0,0-.525.723L2.182,6.4l-1.34.683a.632.632,0,0,0-.276.85l.683,1.34L.186,10.336a.632.632,0,0,0,0,.894l1.063,1.063-.683,1.34a.632.632,0,0,0,.276.85l1.34.683-.235,1.485a.632.632,0,0,0,.525.723l1.485.235L4.193,19.1a.632.632,0,0,0,.723.525L6.4,19.385l.683,1.34a.632.632,0,0,0,.85.276l1.34-.683,1.064,1.063a.632.632,0,0,0,.894,0l1.063-1.063,1.34.683a.632.632,0,0,0,.85-.276l.683-1.34,1.485.235a.632.632,0,0,0,.723-.525l.235-1.485,1.485-.235a.632.632,0,0,0,.525-.723l-.235-1.485,1.34-.683a.632.632,0,0,0,.276-.85l-.683-1.34,1.063-1.063A.632.632,0,0,0,21.383,10.337Zm-2.4,2.121.6,1.186-1.186.6a.632.632,0,0,0-.337.662l.208,1.315-1.315.208a.632.632,0,0,0-.525.525l-.208,1.315-1.315-.208a.632.632,0,0,0-.662.337l-.6,1.186-1.186-.6a.632.632,0,0,0-.734.116l-.941.941L9.843,19.1a.633.633,0,0,0-.734-.116l-1.186.6-.6-1.186a.632.632,0,0,0-.662-.337l-1.315.208-.208-1.315a.632.632,0,0,0-.525-.525l-1.315-.208L3.5,14.911a.632.632,0,0,0-.337-.662l-1.186-.6.6-1.186a.632.632,0,0,0-.116-.734l-.941-.941.941-.941a.632.632,0,0,0,.116-.734l-.6-1.186,1.186-.6A.632.632,0,0,0,3.5,6.656L3.294,5.342l1.315-.208a.632.632,0,0,0,.525-.525l.208-1.315L6.657,3.5a.632.632,0,0,0,.662-.337l.6-1.186,1.186.6a.632.632,0,0,0,.734-.116l.941-.941.941.941a.632.632,0,0,0,.734.116l1.186-.6.6,1.186a.632.632,0,0,0,.662.337l1.315-.208.208,1.315a.632.632,0,0,0,.525.525l1.315.208-.208,1.315a.632.632,0,0,0,.337.662l1.186.6-.6,1.186a.632.632,0,0,0,.116.734l.941.941-.941.941a.632.632,0,0,0-.116.734Z" transform="translate(0 0)"/>
    <path id="Path_190" data-name="Path 190" d="M103.123,96.4a6.723,6.723,0,1,0,6.723,6.723A6.731,6.731,0,0,0,103.123,96.4Zm0,12.182a5.459,5.459,0,1,1,5.459-5.459A5.465,5.465,0,0,1,103.123,108.582Z" transform="translate(-92.339 -92.339)"/>
  </g>
</svg>
