<svg xmlns="http://www.w3.org/2000/svg" width="21.567" height="21.567" viewBox="0 0 21.567 21.567">
  <g id="settings" transform="translate(0 0)">
    <path id="Path_191" data-name="Path 191" d="M11.46,21.567H10.107a1.988,1.988,0,0,1-1.985-1.985v-.458a8.707,8.707,0,0,1-1.352-.561l-.325.325a1.985,1.985,0,0,1-2.808,0L2.68,17.93a1.985,1.985,0,0,1,0-2.808L3,14.8a8.708,8.708,0,0,1-.561-1.352H1.985A1.988,1.988,0,0,1,0,11.461V10.107A1.988,1.988,0,0,1,1.985,8.121h.458A8.709,8.709,0,0,1,3,6.769L2.68,6.445a1.985,1.985,0,0,1,0-2.808l.957-.957a1.985,1.985,0,0,1,2.808,0L6.769,3a8.715,8.715,0,0,1,1.352-.561V1.985A1.988,1.988,0,0,1,10.107,0h1.354a1.988,1.988,0,0,1,1.985,1.985v.458A8.707,8.707,0,0,1,14.8,3l.325-.325a1.985,1.985,0,0,1,2.808,0l.957.957a1.985,1.985,0,0,1,0,2.808l-.324.324a8.708,8.708,0,0,1,.561,1.352h.458a1.988,1.988,0,0,1,1.985,1.985v1.354a1.988,1.988,0,0,1-1.985,1.985h-.458a8.709,8.709,0,0,1-.561,1.352l.325.325a1.985,1.985,0,0,1,0,2.808l-.957.957a1.985,1.985,0,0,1-2.808,0l-.324-.324a8.715,8.715,0,0,1-1.352.561v.458A1.988,1.988,0,0,1,11.46,21.567Zm-4.48-4.332a7.448,7.448,0,0,0,1.931.8.632.632,0,0,1,.474.612v.933a.723.723,0,0,0,.722.722h1.354a.723.723,0,0,0,.722-.722v-.933a.632.632,0,0,1,.474-.612,7.448,7.448,0,0,0,1.931-.8.632.632,0,0,1,.768.1l.661.661a.721.721,0,0,0,1.02,0l.957-.957a.722.722,0,0,0,0-1.02l-.661-.661a.632.632,0,0,1-.1-.768,7.447,7.447,0,0,0,.8-1.931.632.632,0,0,1,.612-.474h.933a.723.723,0,0,0,.722-.722V10.107a.723.723,0,0,0-.722-.722h-.933a.632.632,0,0,1-.612-.474,7.448,7.448,0,0,0-.8-1.931.632.632,0,0,1,.1-.768l.661-.661a.721.721,0,0,0,0-1.02l-.957-.957a.722.722,0,0,0-1.02,0l-.661.661a.632.632,0,0,1-.768.1,7.448,7.448,0,0,0-1.931-.8.632.632,0,0,1-.474-.612V1.985a.723.723,0,0,0-.722-.722H10.107a.723.723,0,0,0-.722.722v.933a.632.632,0,0,1-.474.612,7.448,7.448,0,0,0-1.931.8.632.632,0,0,1-.768-.1l-.661-.661a.721.721,0,0,0-1.02,0l-.957.957a.722.722,0,0,0,0,1.02l.661.661a.632.632,0,0,1,.1.768,7.447,7.447,0,0,0-.8,1.931.632.632,0,0,1-.612.474H1.985a.723.723,0,0,0-.722.722v1.354a.723.723,0,0,0,.722.722h.933a.632.632,0,0,1,.612.474,7.448,7.448,0,0,0,.8,1.931.632.632,0,0,1-.1.768l-.661.661a.721.721,0,0,0,0,1.02l.957.957a.722.722,0,0,0,1.02,0l.661-.661a.635.635,0,0,1,.769-.1Z"/>
    <path id="Path_192" data-name="Path 192" d="M149.293,153.985a4.693,4.693,0,1,1,4.693-4.693A4.7,4.7,0,0,1,149.293,153.985Zm0-8.121a3.429,3.429,0,1,0,3.429,3.429A3.433,3.433,0,0,0,149.293,145.864Z" transform="translate(-138.509 -138.509)"/>
  </g>
</svg>
