<svg xmlns="http://www.w3.org/2000/svg" width="109.724" height="95.172" viewBox="0 0 109.724 95.172">
  <g id="SIDA_Logo_Name_Disassembly" data-name="SIDA Logo &amp; Name Disassembly" transform="translate(-134 -253.359)">
    <path id="Path_4" data-name="Path 4" d="M2624.1-481.374a9.315,9.315,0,0,1,.365,2.593,9.316,9.316,0,0,1-.365,2.593,9.011,9.011,0,0,1-3.079,4.559,8.45,8.45,0,0,1-5.226,1.8h-19.163v-7.11h19.163a1.828,1.828,0,0,0,1.783-1.84,1.828,1.828,0,0,0-1.783-1.84H2605.3a8.506,8.506,0,0,1-2.51-.377,8.592,8.592,0,0,1-3.646-2.258,8.988,8.988,0,0,1-2.189-3.764,9.359,9.359,0,0,1-.363-2.593,9.359,9.359,0,0,1,.363-2.593,8.984,8.984,0,0,1,2.189-3.764,8.588,8.588,0,0,1,3.646-2.259,3.249,3.249,0,0,1,.607-.167l.284-.084,6.766,6.985H2605.3a1.828,1.828,0,0,0-1.781,1.841,1.828,1.828,0,0,0,1.781,1.84h12.438a.567.567,0,0,1,.243.084h.04l.082.042h.121l.243.125h.04l.488.126h.04l.243.125h.04l.365.126h.121l.242.125.365.251.2.125.243.125.243.125.041.042.485.377c.04.042.122.083.2.167.041.042.083.084.121.126l.082.083a.142.142,0,0,1,.121.042c.042.042.082.084.124.125l.364.376.121.125.081.084v.126l.121.125.041.042c.039.084.081.167.121.251l.121.125.122.126.041.083.364.753.042.042.242.5.042.084.121.376v.126l.122.293Zm.607-17.692v7.11h-10.857l-6.885-7.11Z" transform="translate(-2462.59 752.911)" fill="#fb0"/>
    <path id="Path_5" data-name="Path 5" d="M2697.033-499.066v10.671l-6.888-7.114v-3.557Zm-6.888,6.821,6.888,7.114v14.814h-6.888Z" transform="translate(-2522.625 752.911)" fill="#fb0"/>
    <path id="Path_6" data-name="Path 6" d="M2747.318-492.671a14.654,14.654,0,0,1,2.432,8.119,14.619,14.619,0,0,1-2.432,8.077l-.121.125a13.753,13.753,0,0,1-11.382,6.151h-13.855v-17.367l6.928,7.156v3.055h7.414a6.807,6.807,0,0,0,5.226-3.055v-.042a7.65,7.65,0,0,0,1.173-4.1,7.34,7.34,0,0,0-1.215-4.1,6.86,6.86,0,0,0-5.67-3.1h-6.927v8.118l-6.928-7.156v-8.16h13.855A13.754,13.754,0,0,1,2747.2-492.8Z" transform="translate(-2542.553 752.834)" fill="#fb0"/>
    <path id="Path_7" data-name="Path 7" d="M2815.524-491.447l4.011,6.859-7.859,13.341h-8.062Zm22.483,20.242h-8.061l-1.661-2.844-11.465-19.615,4.011-6.817Z" transform="translate(-2594.284 753.839)" fill="#fb0"/>
    <path id="Path_8" data-name="Path 8" d="M2845.9-437.71l-4.09,6.727,8.171.01Z" transform="translate(-2619.344 713.568)" fill="#fb0"/>
    <path id="Path_1" data-name="Path 1" d="M452.879,407.786q-1.951-2.55-4.133-2.55a3.9,3.9,0,0,0-2.878,1.2,3.941,3.941,0,0,0-1.2,2.892,3.993,3.993,0,0,0,.682,2.264l4.365,4.951a1.384,1.384,0,0,1,0,1.937,1.317,1.317,0,0,1-.969.4,1.293,1.293,0,0,1-1.009-.464l-4.433-5.006a6.615,6.615,0,0,1-1.364-4.078,6.477,6.477,0,0,1,2.2-4.829,6.575,6.575,0,0,1,4.61-1.991,6.7,6.7,0,0,1,3.642.969,10.382,10.382,0,0,1,2.482,2.4,1.85,1.85,0,0,1,.478,1.118,1.351,1.351,0,0,1-1.365,1.364A1.288,1.288,0,0,1,452.879,407.786Zm-8.252,11.266q1.95,2.551,4.119,2.551a4.1,4.1,0,0,0,4.092-4.092,3.537,3.537,0,0,0-.682-2.264l-4.365-4.951a1.385,1.385,0,0,1,0-1.937,1.356,1.356,0,0,1,1.978.068l4.433,5.006a6.024,6.024,0,0,1,1.364,4.078,6.434,6.434,0,0,1-2.2,4.815,6.567,6.567,0,0,1-4.624,2.005,6.672,6.672,0,0,1-3.628-.969,10.364,10.364,0,0,1-2.483-2.4,1.849,1.849,0,0,1-.478-1.119,1.352,1.352,0,0,1,1.364-1.364A1.289,1.289,0,0,1,444.627,419.053Z" transform="translate(-261.399 -90.126)" fill="#fb0"/>
    <path id="Path_2" data-name="Path 2" d="M224.28,292.074c-.524-.9-1.031-1.757-1.531-2.622-1.184-2.05-2.358-4.106-3.555-6.148a.731.731,0,0,1,0-.846q7.073-12.208,14.121-24.429a.741.741,0,0,1,.741-.432q14.088.014,28.175,0a.732.732,0,0,1,.734.428c1.149,2.024,2.318,4.036,3.483,6.051.124.214.26.421.414.669l11.635-4.419.1.125-14.553,17.8c-.143-.23-.263-.41-.372-.6-2.009-3.464-4.024-6.926-6.014-10.4a.766.766,0,0,0-.782-.445q-8.718.017-17.435-.005a.882.882,0,0,0-.87.545q-7.023,12.178-14.061,24.345C224.444,291.8,224.379,291.909,224.28,292.074Z" transform="translate(-60.66 40.391)" fill="#fb0"/>
    <path id="Path_3" data-name="Path 3" d="M205.63,451.367,220.16,433.6c1.444,2.5,2.855,4.939,4.266,7.38.692,1.2,1.4,2.385,2.072,3.594a.766.766,0,0,0,.785.445q8.748-.019,17.5,0a.825.825,0,0,0,.832-.481q6.9-11.985,13.823-23.959c.135-.234.279-.461.468-.772.567.961,1.11,1.868,1.64,2.782,1.144,1.974,2.275,3.956,3.426,5.926a.765.765,0,0,1,.014.9q-7.043,12.153-14.045,24.332a.875.875,0,0,1-.891.489q-13.99-.016-27.98,0a.91.91,0,0,1-.927-.535c-1.236-2.189-2.507-4.358-3.791-6.579-1.54.583-3.054,1.163-4.572,1.73q-3.516,1.316-7.037,2.619Z" transform="translate(-48.564 -105.712)" fill="#fb0"/>
  </g>
</svg>
