<svg xmlns="http://www.w3.org/2000/svg" width="109.724" height="29.721" viewBox="0 0 109.724 29.721">
  <g id="SIDA_Logo_Name_Smaller" data-name="SIDA Logo &amp; Name Smaller" transform="translate(-134 -253.359)">
    <path id="Path_4" data-name="Path 4" d="M2624.1-481.374a9.315,9.315,0,0,1,.365,2.593,9.316,9.316,0,0,1-.365,2.593,9.011,9.011,0,0,1-3.079,4.559,8.45,8.45,0,0,1-5.226,1.8h-19.163v-7.11h19.163a1.828,1.828,0,0,0,1.783-1.84,1.828,1.828,0,0,0-1.783-1.84H2605.3a8.506,8.506,0,0,1-2.51-.377,8.592,8.592,0,0,1-3.646-2.258,8.988,8.988,0,0,1-2.189-3.764,9.359,9.359,0,0,1-.363-2.593,9.359,9.359,0,0,1,.363-2.593,8.984,8.984,0,0,1,2.189-3.764,8.588,8.588,0,0,1,3.646-2.259,3.249,3.249,0,0,1,.607-.167l.284-.084,6.766,6.985H2605.3a1.828,1.828,0,0,0-1.781,1.841,1.828,1.828,0,0,0,1.781,1.84h12.438a.567.567,0,0,1,.243.084h.04l.082.042h.121l.243.125h.04l.488.126h.04l.243.125h.04l.365.126h.121l.242.125.365.251.2.125.243.125.243.125.041.042.485.377c.04.042.122.083.2.167.041.042.083.084.121.126l.082.083a.142.142,0,0,1,.121.042c.042.042.082.084.124.125l.364.376.121.125.081.084v.126l.121.125.041.042c.039.084.081.167.121.251l.121.125.122.126.041.083.364.753.042.042.242.5.042.084.121.376v.126l.122.293Zm.607-17.692v7.11h-10.857l-6.885-7.11Z" transform="translate(-2462.59 752.911)" fill="#fb0"/>
    <path id="Path_5" data-name="Path 5" d="M2697.033-499.066v10.671l-6.888-7.114v-3.557Zm-6.888,6.821,6.888,7.114v14.814h-6.888Z" transform="translate(-2522.625 752.911)" fill="#fb0"/>
    <path id="Path_6" data-name="Path 6" d="M2747.318-492.671a14.654,14.654,0,0,1,2.432,8.119,14.619,14.619,0,0,1-2.432,8.077l-.121.125a13.753,13.753,0,0,1-11.382,6.151h-13.855v-17.367l6.928,7.156v3.055h7.414a6.807,6.807,0,0,0,5.226-3.055v-.042a7.65,7.65,0,0,0,1.173-4.1,7.34,7.34,0,0,0-1.215-4.1,6.86,6.86,0,0,0-5.67-3.1h-6.927v8.118l-6.928-7.156v-8.16h13.855A13.754,13.754,0,0,1,2747.2-492.8Z" transform="translate(-2542.553 752.834)" fill="#fb0"/>
    <path id="Path_7" data-name="Path 7" d="M2815.524-491.447l4.011,6.859-7.859,13.341h-8.062Zm22.483,20.242h-8.061l-1.661-2.844-11.465-19.615,4.011-6.817Z" transform="translate(-2594.284 753.839)" fill="#fb0"/>
    <path id="Path_8" data-name="Path 8" d="M2845.9-437.71l-4.09,6.727,8.171.01Z" transform="translate(-2619.344 713.568)" fill="#fb0"/>
    <path id="Path_1" data-name="Path 1" d="M443.339,403.183a.687.687,0,0,0-.529-.326.5.5,0,0,0-.368.154.5.5,0,0,0-.154.37.511.511,0,0,0,.087.29l.558.633a.177.177,0,0,1,0,.248.168.168,0,0,1-.124.051.166.166,0,0,1-.129-.059l-.567-.64a.846.846,0,0,1-.174-.522.828.828,0,0,1,.281-.618.841.841,0,0,1,.59-.255.857.857,0,0,1,.466.124,1.329,1.329,0,0,1,.318.307.237.237,0,0,1,.061.143.173.173,0,0,1-.174.174A.165.165,0,0,1,443.339,403.183Zm-1.056,1.441a.686.686,0,0,0,.527.326.524.524,0,0,0,.523-.523.453.453,0,0,0-.087-.29l-.558-.633a.177.177,0,0,1,0-.248.173.173,0,0,1,.253.009l.567.64a.771.771,0,0,1,.174.522.823.823,0,0,1-.281.616.84.84,0,0,1-.591.256.854.854,0,0,1-.464-.124,1.326,1.326,0,0,1-.318-.307.237.237,0,0,1-.061-.143.173.173,0,0,1,.174-.174A.165.165,0,0,1,442.284,404.624Z" transform="translate(-250.075 -135.68)" fill="#fb0"/>
    <path id="Path_2" data-name="Path 2" d="M219.728,262.006c-.067-.115-.132-.225-.2-.335-.151-.262-.3-.525-.455-.786a.093.093,0,0,1,0-.108q.9-1.561,1.806-3.125a.1.1,0,0,1,.095-.055q1.8,0,3.6,0a.094.094,0,0,1,.094.055c.147.259.3.516.445.774.016.027.033.054.053.086l1.488-.565.012.016-1.861,2.277c-.018-.029-.034-.052-.048-.076-.257-.443-.515-.886-.769-1.33a.1.1,0,0,0-.1-.057q-1.115,0-2.23,0a.113.113,0,0,0-.111.07q-.9,1.558-1.8,3.114Z" transform="translate(-30.028 7.391)" fill="#fb0"/>
    <path id="Path_3" data-name="Path 3" d="M205.63,423.849l1.859-2.272.546.944c.089.153.179.305.265.46a.1.1,0,0,0,.1.057q1.119,0,2.238,0a.106.106,0,0,0,.106-.062q.883-1.533,1.768-3.065c.017-.03.036-.059.06-.1.073.123.142.239.21.356.146.253.291.506.438.758a.1.1,0,0,1,0,.115q-.9,1.555-1.8,3.112a.112.112,0,0,1-.114.063q-1.789,0-3.579,0a.116.116,0,0,1-.119-.068c-.158-.28-.321-.557-.485-.842l-.585.221-.9.335Z" transform="translate(-16.768 -152.765)" fill="#fb0"/>
  </g>
</svg>
