<svg xmlns="http://www.w3.org/2000/svg" width="30.773" height="28.821" viewBox="0 0 30.773 28.821">
  <path id="Path_64" data-name="Path 64" d="M1899.275-3057.772c1.047-3.094,2.053-6.2,3.167-9.271a1.376,1.376,0,0,0-.644-1.946c-2.824-1.892-5.583-3.88-8.312-6.111q2.742,0,5.484,0c1.619,0,3.242-.061,4.856.037a1.453,1.453,0,0,0,1.715-1.223c1.027-3.237,2.125-6.451,3.3-10,1.161,3.453,2.263,6.578,3.249,9.739a1.739,1.739,0,0,0,2.033,1.5,89.108,89.108,0,0,1,10.131.237l-6.973,4.9c-2.394,1.682-2.388,1.68-1.474,4.4.871,2.592,1.729,5.189,2.592,7.784l-.294.229c-.458-.307-.924-.6-1.375-.922-2.313-1.629-4.649-3.23-6.92-4.916a1.361,1.361,0,0,0-1.938.013c-2.273,1.686-4.606,3.288-6.92,4.918-.459.323-.933.626-1.4.938Zm2.911-3.236c1.931-1.326,3.883-2.624,5.784-3.993a1.286,1.286,0,0,1,1.769,0c1.9,1.37,3.853,2.667,5.786,3.992l.35.142-.087-.4c-.593-1.805-1.218-3.6-1.77-5.418-.756-2.485-1.065-1.762,1.039-3.277,1.66-1.2,3.345-2.357,5.018-3.534a36.844,36.844,0,0,0-6.945-.278c-1.253.071-1.7-.415-2.028-1.518-.646-2.2-1.43-4.369-2.242-6.807-.8,2.382-1.623,4.477-2.2,6.637a1.878,1.878,0,0,1-2.252,1.682c-2.217-.113-4.444-.031-6.667-.031a44.123,44.123,0,0,0,4.908,3.846c2.1,1.512,1.8.776,1.042,3.278-.552,1.818-1.183,3.612-1.777,5.417l-.082.4Z" transform="translate(-1893.486 3086.288)"/>
</svg>
