<svg id="steering-wheel" xmlns="http://www.w3.org/2000/svg" width="22.751" height="22.751" viewBox="0 0 22.751 22.751">
  <g id="Group_139" data-name="Group 139">
    <g id="Group_138" data-name="Group 138">
      <path id="Path_156" data-name="Path 156" d="M11.375,0A11.375,11.375,0,1,0,22.751,11.375,11.4,11.4,0,0,0,11.375,0Zm0,21.418A10.042,10.042,0,1,1,21.418,11.375,10.054,10.054,0,0,1,11.375,21.418Z"/>
    </g>
  </g>
  <g id="Group_141" data-name="Group 141" transform="translate(2.666 2.666)">
    <g id="Group_140" data-name="Group 140">
      <path id="Path_157" data-name="Path 157" d="M68.709,60a8.709,8.709,0,1,0,8.709,8.709A8.743,8.743,0,0,0,68.709,60Zm0,1.333a7.383,7.383,0,0,1,6.535,3.958,17.738,17.738,0,0,0-13.07,0A7.383,7.383,0,0,1,68.709,61.333Zm-6.993,9.723.563.08a4.742,4.742,0,0,1,4,4l.08.563A7.412,7.412,0,0,1,61.716,71.056Zm9.34,4.647.08-.563a4.742,4.742,0,0,1,4-4l.563-.08A7.412,7.412,0,0,1,71.056,75.7Zm3.9-5.886a6.082,6.082,0,0,0-5.135,5.135l-.153,1.073a7.42,7.42,0,0,1-1.908,0L67.6,74.951a6.082,6.082,0,0,0-5.135-5.135l-1.073-.153a7.4,7.4,0,0,1,.142-2.675,18.317,18.317,0,0,1,7.173-1.611,18.316,18.316,0,0,1,7.173,1.611,7.4,7.4,0,0,1,.142,2.675Z" transform="translate(-60 -60)"/>
    </g>
  </g>
  <g id="Group_143" data-name="Group 143" transform="translate(9.376 9.376)">
    <g id="Group_142" data-name="Group 142">
      <path id="Path_158" data-name="Path 158" d="M213,211a2,2,0,1,0,2,2A2,2,0,0,0,213,211Zm0,2.666a.667.667,0,1,1,.667-.667A.667.667,0,0,1,213,213.666Z" transform="translate(-211 -211)"/>
    </g>
  </g>
</svg>
