<svg xmlns="http://www.w3.org/2000/svg" width="21.567" height="19.912" viewBox="0 0 21.567 19.912">
  <g id="document_1_" data-name="document (1)" transform="translate(0 -19.652)">
    <g id="Group_196" data-name="Group 196" transform="translate(2.976 19.652)">
      <g id="Group_195" data-name="Group 195">
        <path id="Path_182" data-name="Path 182" d="M73.19,19.652a2.452,2.452,0,0,0-2.461,2.434L70.64,34.7l1.342.01.09-12.623a1.109,1.109,0,0,1,1.119-1.1H86.681V19.652Z" transform="translate(-70.64 -19.652)"/>
      </g>
    </g>
    <g id="Group_198" data-name="Group 198" transform="translate(0 19.652)">
      <g id="Group_197" data-name="Group 197">
        <path id="Path_183" data-name="Path 183" d="M19.017,19.652A2.553,2.553,0,0,0,16.466,22.2V36.365a1.857,1.857,0,0,1-3.714,0V34.731a.671.671,0,0,0-.671-.671H.671A.671.671,0,0,0,0,34.731v1.633a3.2,3.2,0,0,0,3.2,3.2V38.221a1.859,1.859,0,0,1-1.857-1.857V35.4H11.41v.962a3.2,3.2,0,0,0,6.4,0V25.872H20.9a.671.671,0,0,0,.671-.671v-3A2.553,2.553,0,0,0,19.017,19.652Zm1.208,4.877H17.809V22.2a1.208,1.208,0,1,1,2.416,0v2.327Z" transform="translate(0 -19.652)"/>
      </g>
    </g>
    <g id="Group_200" data-name="Group 200" transform="translate(3.065 38.221)">
      <g id="Group_199" data-name="Group 199">
        <rect id="Rectangle_52" data-name="Rectangle 52" width="11.388" height="1.342"/>
      </g>
    </g>
    <g id="Group_202" data-name="Group 202" transform="translate(5.839 23.388)">
      <g id="Group_201" data-name="Group 201">
        <path id="Path_184" data-name="Path 184" d="M142.761,108.349h-3.468a.671.671,0,1,0,0,1.342h3.468a.671.671,0,0,0,0-1.342Z" transform="translate(-138.622 -108.349)"/>
      </g>
    </g>
    <g id="Group_204" data-name="Group 204" transform="translate(5.839 26.073)">
      <g id="Group_203" data-name="Group 203">
        <path id="Path_185" data-name="Path 185" d="M146.788,172.083h-7.495a.671.671,0,1,0,0,1.342h7.495a.671.671,0,0,0,0-1.342Z" transform="translate(-138.622 -172.083)"/>
      </g>
    </g>
    <g id="Group_206" data-name="Group 206" transform="translate(5.839 28.758)">
      <g id="Group_205" data-name="Group 205">
        <path id="Path_186" data-name="Path 186" d="M146.788,235.817h-7.495a.671.671,0,0,0,0,1.342h7.495a.671.671,0,0,0,0-1.342Z" transform="translate(-138.622 -235.817)"/>
      </g>
    </g>
    <g id="Group_208" data-name="Group 208" transform="translate(5.839 31.442)">
      <g id="Group_207" data-name="Group 207">
        <path id="Path_187" data-name="Path 187" d="M146.788,299.552h-7.495a.671.671,0,0,0,0,1.342h7.495a.671.671,0,0,0,0-1.342Z" transform="translate(-138.622 -299.552)"/>
      </g>
    </g>
  </g>
</svg>
