<svg xmlns="http://www.w3.org/2000/svg" width="17.068" height="23.411" viewBox="0 0 17.068 23.411">
  <g id="Target_Flag" data-name="Target Flag" transform="translate(0 0)">
    <path id="Path_57" data-name="Path 57" d="M1550.569-3046.187c-2.594-3.581-5.1-6.8-7.334-10.2a8.755,8.755,0,0,1,1.479-10.864,8.343,8.343,0,0,1,10.534-.877,8.96,8.96,0,0,1,3.193,10.507,6.4,6.4,0,0,1-.48,1.056c-.478.769-.971,1.529-1.5,2.264C1554.576-3051.684,1552.674-3049.081,1550.569-3046.187Zm-.17-10.541a31.879,31.879,0,0,0,2.77-2.222c1.117-1.128,1.346-2.868.631-3.691-.755-.871-1.786-.743-3.4.424-1.475-1.2-2.383-1.329-3.206-.469a2.493,2.493,0,0,0,.282,3.351A35.754,35.754,0,0,0,1550.4-3056.727Z" transform="translate(-1541.966 3069.598)" fill="#f4b204"/>
    <path id="Path_58" data-name="Path 58" d="M1557.595-3047a35.706,35.706,0,0,1-2.925-2.608,2.492,2.492,0,0,1-.282-3.35c.824-.859,1.731-.727,3.205.469,1.618-1.167,2.648-1.3,3.4-.424.714.823.486,2.562-.631,3.691A31.912,31.912,0,0,1,1557.595-3047Z" transform="translate(-1549.161 3059.869)" fill="#fff"/>
  </g>
</svg>
