<svg xmlns="http://www.w3.org/2000/svg" width="15.141" height="20.769" viewBox="0 0 15.141 20.769">
  <g id="Target_Flag" data-name="Target Flag" transform="translate(-31 -154.115)">
    <path id="Path_57" data-name="Path 57" d="M1549.6-3048.829c-2.3-3.177-4.526-6.031-6.506-9.046a7.766,7.766,0,0,1,1.312-9.638,7.4,7.4,0,0,1,9.345-.779,7.948,7.948,0,0,1,2.833,9.321,5.683,5.683,0,0,1-.426.937c-.424.681-.861,1.356-1.331,2.008C1553.153-3053.706,1551.465-3051.4,1549.6-3048.829Zm-.151-9.351a28.258,28.258,0,0,0,2.458-1.971c.991-1,1.194-2.544.56-3.274-.67-.773-1.584-.659-3.019.376-1.308-1.061-2.114-1.179-2.844-.416a2.211,2.211,0,0,0,.25,2.972A31.619,31.619,0,0,0,1549.448-3058.18Z" transform="translate(-1510.966 3223.713)" fill="#f4b204"/>
    <path id="Path_58" data-name="Path 58" d="M1557.174-3047.734a31.548,31.548,0,0,1-2.595-2.313,2.21,2.21,0,0,1-.25-2.972c.73-.762,1.536-.645,2.844.416,1.435-1.035,2.349-1.149,3.019-.376.634.73.431,2.273-.56,3.274A28.234,28.234,0,0,1,1557.174-3047.734Z" transform="translate(-1518.692 3213.267)" fill="#fff"/>
  </g>
</svg>
